<svg id="svg" version="1.1" xmlns="http://www.w3.org/2000/svg" xmlns:xlink="http://www.w3.org/1999/xlink" width="400" height="400" viewBox="0, 0, 400,400"><g id="svgg"><path id="path0" d="M275.200 29.210 C 251.837 31.585,241.127 44.325,235.022 77.000 C 234.241 81.180,232.710 88.920,231.619 94.200 C 230.529 99.480,228.805 108.030,227.789 113.200 C 226.773 118.370,225.058 126.200,223.979 130.600 C 220.881 143.228,215.500 166.172,211.408 184.200 C 205.214 211.485,204.803 212.348,198.205 211.928 C 192.318 211.553,192.362 211.663,184.794 178.000 C 182.262 166.741,180.433 158.986,174.603 134.800 C 173.410 129.850,170.349 115.270,167.800 102.400 C 161.675 71.461,161.413 70.269,159.379 64.078 C 153.336 45.687,144.823 37.204,129.183 33.989 C 99.258 27.839,73.580 46.244,67.129 78.466 C 66.045 83.885,65.816 101.200,66.726 109.000 C 70.300 139.645,75.907 164.243,84.002 184.800 C 95.189 213.209,102.369 227.512,112.816 242.200 C 120.160 252.525,120.350 253.447,116.905 262.000 C 113.823 269.652,112.369 275.502,110.938 286.000 C 109.878 293.784,109.867 316.815,110.921 322.400 C 116.272 350.743,126.990 364.854,152.063 376.567 C 166.572 383.345,175.910 384.985,200.000 384.985 C 224.090 384.985,233.428 383.345,247.937 376.567 C 273.010 364.854,283.728 350.743,289.079 322.400 C 290.131 316.827,290.122 293.794,289.065 286.000 C 287.503 274.482,285.709 267.848,281.766 259.000 C 277.781 250.061,277.919 249.316,285.523 238.600 C 296.275 223.447,302.849 210.377,314.195 181.600 C 326.175 151.215,334.108 106.513,332.048 81.000 C 329.426 48.521,304.913 26.189,275.200 29.210 " stroke="none" fill="#fbfbfb" fill-rule="evenodd"></path><path id="path1" d="M0.000 200.000 L 0.000 400.000 200.000 400.000 L 400.000 400.000 400.000 200.000 L 400.000 0.000 200.000 0.000 L 0.000 0.000 0.000 200.000 M291.324 30.039 C 310.314 33.842,325.582 50.075,330.789 72.000 C 335.985 93.882,328.010 146.562,314.195 181.600 C 302.849 210.377,296.275 223.447,285.523 238.600 C 277.919 249.316,277.781 250.061,281.766 259.000 C 285.709 267.848,287.503 274.482,289.065 286.000 C 290.122 293.794,290.131 316.827,289.079 322.400 C 283.728 350.743,273.010 364.854,247.937 376.567 C 233.428 383.345,224.090 384.985,200.000 384.985 C 175.910 384.985,166.572 383.345,152.063 376.567 C 126.990 364.854,116.272 350.743,110.921 322.400 C 109.867 316.815,109.878 293.784,110.938 286.000 C 112.369 275.502,113.823 269.652,116.905 262.000 C 120.350 253.447,120.160 252.525,112.816 242.200 C 102.369 227.512,95.189 213.209,84.002 184.800 C 75.907 164.243,70.300 139.645,66.726 109.000 C 65.816 101.200,66.045 83.885,67.129 78.466 C 73.580 46.244,99.258 27.839,129.183 33.989 C 144.823 37.204,153.336 45.687,159.379 64.078 C 161.413 70.269,161.675 71.461,167.800 102.400 C 170.349 115.270,173.410 129.850,174.603 134.800 C 180.433 158.986,182.262 166.741,184.794 178.000 C 192.362 211.663,192.318 211.553,198.205 211.928 C 204.803 212.348,205.214 211.485,211.408 184.200 C 215.500 166.172,220.881 143.228,223.979 130.600 C 225.058 126.200,226.773 118.370,227.789 113.200 C 228.805 108.030,230.529 99.480,231.619 94.200 C 232.710 88.920,234.241 81.180,235.022 77.000 C 239.901 50.888,247.403 38.254,261.478 32.450 C 269.814 29.013,281.487 28.070,291.324 30.039 " stroke="none" fill="#1cd41c" fill-rule="evenodd"></path></g></svg>